<svg width="35" height="36" viewBox="0 0 35 36" fill="none" xmlns="http://www.w3.org/2000/svg">
<path fill-rule="evenodd" clip-rule="evenodd" d="M17.5007 1.54542C8.74539 1.54542 1.58027 8.87157 1.58027 17.9948C1.58027 27.1172 8.74603 34.4427 17.5007 34.4427C26.2546 34.4427 33.4197 27.1173 33.4197 17.9948C33.4197 8.87154 26.2538 1.54542 17.5007 1.54542ZM0 17.9948C0 8.09553 7.79546 0 17.5007 0C27.2038 0 35 8.09555 35 17.9948C35 27.8934 27.2045 35.9882 17.5007 35.9882C7.79627 35.9882 0 27.8934 0 17.9948Z" fill="#CF4037"/>
<path fill-rule="evenodd" clip-rule="evenodd" d="M22.5457 14.2187C21.7758 8.88177 17.2769 6.24651 14.4667 4.6679C11.8587 3.2037 9.52365 2.53835 9.46731 2.70999C12.4336 5.09521 14.3381 8.81114 14.3381 12.9862C14.3381 19.8325 9.21308 25.4456 2.70205 25.9697L3.11373 26.6053C11.4492 25.3071 33.7557 21.166 33.7557 21.166L33.8149 20.6794L20.2815 20.216C21.7751 18.6374 22.7978 15.9576 22.5457 14.2187Z" fill="#CF4037"/>
</svg>
