<svg width="35" height="34" viewBox="0 0 35 34" fill="none" xmlns="http://www.w3.org/2000/svg">
<path fill-rule="evenodd" clip-rule="evenodd" d="M34.5346 19.9783C34.7124 18.9939 34.8017 17.9962 34.8014 16.9965C34.8014 16.381 34.7674 15.8017 34.7018 15.2489C34.6878 15.129 32.7034 19.1077 29.5284 21.6279C31.7371 19.6927 34.6181 14.6436 34.5775 14.4246C34.5426 14.2347 34.5031 14.0455 34.4592 13.8573C34.0796 12.2287 33.395 10.781 32.4621 9.20726C32.173 12.5472 31.1627 16.1052 28.512 19.1819C31.263 15.9533 32.2201 8.59986 31.5646 7.58717C28.926 3.54119 23.3698 0 17.4215 0L17.3797 0.106774V0.00747827C11.4312 0.00747827 5.87547 3.54846 3.23684 7.59423C2.58111 8.60692 3.53826 15.9604 6.28925 19.1889C3.63873 16.1122 2.62827 12.5542 2.33938 9.21432C1.40582 10.7883 0.721623 12.2356 0.342036 13.8644C0.298106 14.0526 0.258657 14.2417 0.223721 14.4317C0.18315 14.6506 3.06436 19.6998 5.27306 21.635C2.09787 19.1146 0.113477 15.1359 0.0992454 15.256C0.0316928 15.8362 -0.00142879 16.4197 4.72299e-05 17.0036C4.72299e-05 18.0209 0.0913858 19.0171 0.266629 19.9854C0.428702 20.8809 4.119 23.3465 4.21459 23.424C1.53411 22.3998 0.427428 20.7891 0.528113 21.1782C2.43093 28.5466 9.25394 34 17.3797 34V33.9923L17.4215 33.9927C25.5473 33.9927 32.3703 28.5397 34.2729 21.1709C34.3738 20.7818 33.2673 22.3926 30.5866 23.4167C30.682 23.3394 34.3723 20.8741 34.5346 19.9783ZM23.0397 20.6327C22.8643 20.7072 22.6867 20.7714 22.5049 20.8196C20.8387 21.2635 18.5221 21.1005 17.439 19.7168C16.3433 18.3171 16.6466 16.0466 17.4984 14.6135C18.3585 13.1666 19.6496 12.0914 20.7968 10.8737C21.3465 10.2927 21.9065 9.72123 22.4766 9.15948C22.8466 8.79325 23.8565 8.00845 23.8356 7.48496C23.8261 7.23714 23.3656 6.80049 23.2375 6.56596C23.0508 6.22424 22.9342 5.8819 22.7343 5.55639C22.292 4.83764 21.6983 4.50839 20.8988 4.35425C19.8994 4.16168 19.1825 4.24748 18.3547 4.78965C17.7319 5.19764 17.0836 5.95835 16.3229 6.03853C15.1211 6.16525 9.88737 7.01383 9.63948 7.16713C10.285 7.12039 18.1767 7.26975 19.0707 7.48496C20.122 7.73798 20.0744 8.56641 19.3607 9.21806C17.1161 11.2669 13.8096 12.4863 12.4 15.3054C11.7407 16.6235 11.3178 17.5159 11.3161 19.0574C11.3154 19.6927 11.3662 20.9962 12.1687 22.6148C12.1315 22.591 10.9004 21.1709 10.8509 19.9696C7.88089 18.0273 6.3704 15.1228 6.3704 11.3429C6.3704 5.35136 11.291 0.493984 17.3608 0.493984C23.4306 0.493984 28.351 5.35115 28.351 11.3429C28.3514 15.283 26.6291 18.9276 23.0397 20.6327Z" fill="#B4282E"/>
<path fill-rule="evenodd" clip-rule="evenodd" d="M17.8365 23.9239L16.4027 27.7767C15.5762 29.9972 12.0679 29.5306 11.9445 29.5306C11.6562 29.5306 11.4357 29.4994 11.2153 29.2957L11.7403 28.724C11.8655 28.8181 12.0613 28.8729 12.2614 28.8729C12.425 28.8729 14.2275 29.2556 14.7649 27.7767L16.1987 23.9239H17.8365ZM27.9615 28.7553L27.7195 29.4053H22.7866L24.8266 23.9239H26.482L24.6835 28.7553H27.9615ZM20.6074 23.9376L16.237 29.4186H17.0858L18.1921 27.9309H20.1718L19.8419 29.4186H21.5856L22.9249 23.9376H20.6074ZM18.7681 27.1535L21.0229 24.4551L20.4018 27.1535H18.7681Z" fill="white"/>
</svg>
