<svg width="33" height="28" viewBox="0 0 33 28" fill="none" xmlns="http://www.w3.org/2000/svg">
<path d="M15.3098 9.33331H17.6652V8.16665C17.6652 7.85723 17.7893 7.56048 18.0102 7.34169C18.231 7.1229 18.5306 6.99998 18.8429 6.99998H22.376C22.6884 6.99998 22.988 7.1229 23.2088 7.34169C23.4297 7.56048 23.5538 7.85723 23.5538 8.16665V9.33331H28.2646V4.66666C28.2646 3.42898 27.7683 2.242 26.8848 1.36683C26.0014 0.491664 24.8031 0 23.5538 0H9.42127C8.17188 0 6.97366 0.491664 6.09021 1.36683C5.20676 2.242 4.71044 3.42898 4.71044 4.66666V9.33331H9.42127V8.16665C9.42127 7.85723 9.54535 7.56048 9.76621 7.34169C9.98708 7.1229 10.2866 6.99998 10.599 6.99998H14.1321C14.4444 6.99998 14.744 7.1229 14.9649 7.34169C15.1857 7.56048 15.3098 7.85723 15.3098 8.16665V9.33331Z" fill="white"/>
<path d="M5.88829 11.6666C4.32661 11.6666 2.82891 12.2812 1.72464 13.3752C0.620371 14.4691 0 15.9529 0 17.4999V26.8333C0 27.1427 0.124074 27.4394 0.344928 27.6582C0.565781 27.877 0.865323 27.9999 1.17766 27.9999C1.48999 27.9999 1.78953 27.877 2.01039 27.6582C2.23124 27.4394 2.35531 27.1427 2.35531 26.8333V20.9999H30.6191V26.8333C30.6191 27.1427 30.7432 27.4394 30.964 27.6582C31.1849 27.877 31.4844 27.9999 31.7967 27.9999C32.1091 27.9999 32.4086 27.877 32.6295 27.6582C32.8503 27.4394 32.9744 27.1427 32.9744 26.8333V17.4999C32.9744 15.9529 32.354 14.4691 31.2498 13.3752C30.1455 12.2812 28.6478 11.6666 27.0861 11.6666H5.88829Z" fill="white"/>
</svg>
