<svg width="29" height="27" viewBox="0 0 29 27" fill="none" xmlns="http://www.w3.org/2000/svg">
<path d="M25.6489 4.48758C25.3266 3.60796 24.4244 2.98178 23.3611 2.98178H19.3333V1.49089C19.3333 0.670901 18.6083 0 17.7222 0H11.2778C10.3917 0 9.66665 0.670901 9.66665 1.49089V2.98178H5.63888C4.57555 2.98178 3.68944 3.60796 3.35111 4.48758L0.177222 12.9409C0.0644442 13.254 0 13.582 0 13.9249V24.5997C0 25.8371 1.07944 26.836 2.41666 26.836C3.75388 26.836 4.83333 25.8371 4.83333 24.5997V23.8543H24.1666V24.5997C24.1666 25.8222 25.2461 26.836 26.5833 26.836C27.9044 26.836 29 25.8371 29 24.5997V13.9249C29 13.5969 28.9355 13.254 28.8227 12.9409L25.6489 4.48758ZM5.63888 19.3816C4.30166 19.3816 3.22222 18.3827 3.22222 17.1453C3.22222 15.9078 4.30166 14.9089 5.63888 14.9089C6.9761 14.9089 8.05554 15.9078 8.05554 17.1453C8.05554 18.3827 6.9761 19.3816 5.63888 19.3816ZM23.3611 19.3816C22.0239 19.3816 20.9444 18.3827 20.9444 17.1453C20.9444 15.9078 22.0239 14.9089 23.3611 14.9089C24.6983 14.9089 25.7777 15.9078 25.7777 17.1453C25.7777 18.3827 24.6983 19.3816 23.3611 19.3816ZM3.22222 11.9271L5.63888 5.21812H23.3611L25.7777 11.9271H3.22222Z" fill="white"/>
</svg>
