<svg width="24" height="24" viewBox="0 0 24 24" fill="none" xmlns="http://www.w3.org/2000/svg">
<path d="M12 22.4999C9.2152 22.4999 6.54449 21.3937 4.57537 19.4246C2.60624 17.4554 1.5 14.7847 1.5 12C1.5 9.2152 2.60624 6.54449 4.57537 4.57537C6.54449 2.60624 9.2152 1.5 12 1.5C14.7847 1.5 17.4554 2.60624 19.4246 4.57537C21.3937 6.54449 22.4999 9.2152 22.4999 12C22.4999 14.7847 21.3937 17.4554 19.4246 19.4246C17.4554 21.3937 14.7847 22.4999 12 22.4999ZM12 23.9999C15.1826 23.9999 18.2348 22.7357 20.4852 20.4852C22.7357 18.2348 23.9999 15.1826 23.9999 12C23.9999 8.81738 22.7357 5.76514 20.4852 3.51471C18.2348 1.26428 15.1826 0 12 0C8.81738 0 5.76514 1.26428 3.51471 3.51471C1.26428 5.76514 0 8.81738 0 12C0 15.1826 1.26428 18.2348 3.51471 20.4852C5.76514 22.7357 8.81738 23.9999 12 23.9999Z" fill="#1262AF"/>
<path d="M9.3211 6.90457C9.4626 6.83171 9.62146 6.79929 9.7802 6.81089C9.93894 6.82249 10.0914 6.87766 10.2208 6.97032L16.2765 11.2958C16.3887 11.3759 16.4801 11.4815 16.5431 11.604C16.6062 11.7265 16.6391 11.8623 16.6391 12C16.6391 12.1378 16.6062 12.2736 16.5431 12.3961C16.4801 12.5185 16.3887 12.6242 16.2765 12.7042L10.2208 17.0297C10.0914 17.1223 9.93906 17.1774 9.7804 17.189C9.62175 17.2006 9.46296 17.1683 9.32151 17.0955C9.18006 17.0227 9.06141 16.9123 8.97862 16.7765C8.89582 16.6407 8.85209 16.4846 8.85221 16.3255V7.67452C8.85205 7.51548 8.89572 7.35947 8.97844 7.22364C9.06116 7.08781 9.17972 6.97741 9.3211 6.90457Z" fill="#1262AF"/>
</svg>
