<svg width="118" height="24" viewBox="0 0 118 24" fill="none" xmlns="http://www.w3.org/2000/svg">
<line x1="4.74121" y1="11.8315" x2="108.293" y2="11.8316" stroke="#CCCCCC" stroke-dasharray="3 3"/>
<path d="M57.3215 21.75H55.9561C55.8189 21.75 55.6839 21.7185 55.5634 21.6585C55.443 21.5984 55.3409 21.5118 55.2666 21.4064C55.1922 21.301 55.148 21.1803 55.1379 21.0552C55.1278 20.9302 55.1521 20.8048 55.2087 20.6906L58.5151 14.0227L53.5504 13.9219L51.7397 15.9267C51.3945 16.3233 51.1191 16.5 50.4164 16.5H49.4972C49.3516 16.5043 49.2071 16.4764 49.0759 16.4188C48.9446 16.3612 48.8305 16.2755 48.7432 16.1691C48.6211 16.0186 48.5011 15.7636 48.618 15.3998L49.6346 12.0717C49.6423 12.0469 49.6516 12.022 49.6618 11.9977C49.6623 11.9953 49.6623 11.9929 49.6618 11.9906C49.6512 11.9663 49.6422 11.9414 49.6346 11.9161L48.617 8.56687C48.5067 8.21016 48.6272 7.96078 48.7483 7.81406C48.8296 7.71549 48.935 7.63573 49.0562 7.58118C49.1774 7.52664 49.3108 7.49883 49.4459 7.5H50.4164C50.9411 7.5 51.4504 7.71516 51.75 8.0625L53.5232 10.0336L58.5151 9.96609L55.2098 3.30984C55.1531 3.19568 55.1286 3.07036 55.1386 2.94533C55.1486 2.8203 55.1928 2.69956 55.267 2.59414C55.3412 2.48872 55.4432 2.40198 55.5636 2.34186C55.6839 2.28175 55.8189 2.25016 55.9561 2.25H57.3364C57.529 2.25354 57.7182 2.29667 57.89 2.3762C58.0618 2.45572 58.2119 2.5696 58.3289 2.70937L64.7432 9.83438L67.7064 9.76312C67.9234 9.75234 68.5246 9.74859 68.6636 9.74859C71.4981 9.75 73.1908 10.5909 73.1908 12C73.1908 12.4434 72.9969 13.2656 71.6996 13.7887C70.9338 14.0981 69.9121 14.2547 68.6625 14.2547C68.5251 14.2547 67.9255 14.2509 67.7054 14.2402L64.7427 14.168L58.3125 21.293C58.1953 21.4321 58.0455 21.5454 57.8739 21.6246C57.7024 21.7037 57.5136 21.7465 57.3215 21.75Z" fill="#1262AE"/>
<circle cx="5" cy="12.3315" r="4" fill="white" stroke="#1262AE" stroke-width="2"/>
<circle cx="112.351" cy="11.9146" r="4" fill="white" stroke="#1262AE" stroke-width="2"/>
</svg>
