<svg width="174" height="32" viewBox="0 0 174 32" fill="none" xmlns="http://www.w3.org/2000/svg">
<path d="M129.851 7.53363C131.214 7.53363 132.452 7.70703 133.564 8.05381C134.676 8.4006 135.615 8.84903 136.38 9.3991C136.858 9.73393 137.235 10.1046 137.51 10.5112C137.785 10.9178 137.923 11.4439 137.923 12.0897V24.6457L137.917 24.9871C137.877 26.1108 137.64 27.0912 137.205 27.9283C136.727 28.849 136.075 29.6143 135.25 30.2242C134.425 30.8341 133.456 31.2825 132.344 31.5695C131.232 31.8565 130.042 32 128.775 32C126.598 32 124.888 31.707 123.645 31.1211C122.401 30.5351 121.779 29.5845 121.779 28.2691C121.779 27.719 121.893 27.2347 122.12 26.8161C122.347 26.3976 122.604 26.0807 122.891 25.8655C123.585 26.2481 124.368 26.571 125.241 26.8341C126.114 27.0972 127.017 27.2287 127.95 27.2287C129.241 27.2287 130.269 27.0135 131.035 26.583C131.8 26.1525 132.183 25.4589 132.183 24.5022V23.9283L131.91 24.0403C130.983 24.3961 129.878 24.574 128.595 24.574C127.519 24.574 126.497 24.4126 125.528 24.0897C124.559 23.7668 123.71 23.2646 122.981 22.583C122.251 21.9013 121.665 21.0224 121.223 19.9462C120.781 18.87 120.559 17.5904 120.559 16.1076C120.559 14.6487 120.793 13.3812 121.259 12.3049C121.725 11.2287 122.371 10.3378 123.196 9.63229C124.021 8.92676 125.002 8.4006 126.138 8.05381C127.274 7.70703 128.512 7.53363 129.851 7.53363ZM33.2869 8.09055C35.4197 8.09055 37.165 8.56913 38.5227 9.52629C39.8804 10.4835 40.6841 12.1741 40.9338 14.5982H36.3769L36.3333 14.33C36.2301 13.8014 36.0313 13.3185 35.737 12.8816C35.2377 12.1949 34.4626 11.8516 33.4118 11.8516C31.9136 11.8516 30.8888 12.5955 30.3374 14.0832C30.0461 14.8739 29.9004 15.9247 29.9004 17.2356C29.9004 18.4841 30.0461 19.4881 30.3374 20.2475C30.868 21.6625 31.8668 22.3699 33.3337 22.3699C34.3741 22.3699 35.1128 22.089 35.5498 21.5272C35.9867 20.9654 36.252 20.2371 36.3457 19.3424H40.887L40.8561 19.6532C40.7054 20.8914 40.2267 22.0674 39.42 23.1814C38.0259 25.127 35.9607 26.0998 33.2245 26.0998C30.4883 26.0998 28.4751 25.2882 27.185 23.6652C25.8949 22.0422 25.2499 19.9354 25.2499 17.3448C25.2499 14.4213 25.9626 12.1481 27.3879 10.5251C28.8132 8.90206 30.7796 8.09055 33.2869 8.09055ZM74.6185 8.04373C76.0334 8.04373 77.3079 8.30903 78.4419 8.83963C79.5759 9.37024 80.5123 10.2078 81.251 11.3522C81.9168 12.3614 82.3486 13.5318 82.5462 14.8635C82.6607 15.6438 82.7075 16.7674 82.6867 18.2344H71.0447L71.0606 18.5302C71.1718 20.0796 71.7023 21.1775 72.6521 21.8237C73.2659 22.2503 74.0046 22.4636 74.8681 22.4636C75.7837 22.4636 76.5276 22.2035 77.0998 21.6833C77.4119 21.4024 77.6876 21.0122 77.9269 20.5128H82.4682L82.4345 20.746C82.2705 21.6798 81.7563 22.6268 80.892 23.5872C79.4355 25.2414 77.3963 26.0685 74.7745 26.0685C72.6105 26.0685 70.7014 25.3715 69.0471 23.9773C67.3929 22.5832 66.5658 20.3152 66.5658 17.1732C66.5658 14.2289 67.3123 11.9712 68.8053 10.4002C70.2982 8.82923 72.236 8.04373 74.6185 8.04373ZM105.848 1.79372C106.374 1.79372 106.846 1.8296 107.265 1.90135C107.683 1.97309 108.036 2.11659 108.323 2.33184C108.61 2.54709 108.831 2.84006 108.987 3.21076C109.142 3.58146 109.22 4.06577 109.22 4.66368V25.4709L109.099 25.4925C108.843 25.5378 108.495 25.5964 108.054 25.6682C107.54 25.7519 107.019 25.7937 106.493 25.7937C105.967 25.7937 105.495 25.7578 105.076 25.6861C104.658 25.6143 104.305 25.4709 104.018 25.2556C103.731 25.0404 103.51 24.7474 103.354 24.3767C103.199 24.006 103.121 23.5217 103.121 22.9238V2.11659L103.242 2.09499C103.498 2.0496 103.846 1.99103 104.287 1.91928C104.801 1.83558 105.321 1.79372 105.848 1.79372ZM115.015 8C115.541 8 116.014 8.03587 116.432 8.10762C116.851 8.17937 117.203 8.32287 117.49 8.53812C117.777 8.75336 117.999 9.04634 118.154 9.41704C118.31 9.78774 118.387 10.272 118.387 10.87V25.4709L118.267 25.4925C118.011 25.5378 117.662 25.5964 117.221 25.6682C116.707 25.7519 116.187 25.7937 115.661 25.7937C115.135 25.7937 114.662 25.7578 114.244 25.6861C113.825 25.6143 113.473 25.4709 113.186 25.2556C112.899 25.0404 112.677 24.7474 112.522 24.3767C112.366 24.006 112.289 23.5217 112.289 22.9238V8.32287L112.409 8.30127C112.665 8.25588 113.014 8.19731 113.455 8.12556C113.969 8.04185 114.489 8 115.015 8ZM143.574 1.79372C144.101 1.79372 144.573 1.8296 144.991 1.90135C145.41 1.97309 145.763 2.11659 146.05 2.33184C146.337 2.54709 146.558 2.84006 146.713 3.21076C146.869 3.58146 146.947 4.06577 146.947 4.66368V8.17937L147.071 8.13369C147.378 8.02513 147.809 7.90284 148.364 7.76682C148.997 7.61136 149.697 7.53363 150.462 7.53363C152.83 7.53363 154.678 8.12556 156.005 9.30942C157.332 10.4933 157.996 12.2571 157.996 14.6009V25.4709L157.885 25.5016C157.646 25.5631 157.307 25.6246 156.866 25.6861C156.352 25.7578 155.82 25.7937 155.27 25.7937C154.743 25.7937 154.271 25.7578 153.852 25.6861C153.434 25.6143 153.081 25.4709 152.794 25.2556C152.507 25.0404 152.286 24.7474 152.131 24.3767C151.975 24.006 151.897 23.5217 151.897 22.9238V14.9596L151.893 14.7386C151.858 13.875 151.614 13.2611 151.162 12.8969C150.672 12.5022 150.068 12.3049 149.35 12.3049C148.872 12.3049 148.417 12.3647 147.987 12.4843C147.557 12.6039 147.21 12.7474 146.947 12.9148V25.4709L146.836 25.5016C146.597 25.5631 146.257 25.6246 145.817 25.6861C145.302 25.7578 144.77 25.7937 144.22 25.7937C143.694 25.7937 143.222 25.7578 142.803 25.6861C142.385 25.6143 142.032 25.4709 141.745 25.2556C141.458 25.0404 141.237 24.7474 141.081 24.3767C140.926 24.006 140.848 23.5217 140.848 22.9238V2.11659L140.968 2.09499C141.225 2.0496 141.573 1.99103 142.014 1.91928C142.528 1.83558 143.048 1.79372 143.574 1.79372ZM100.626 3.76682L100.708 3.90583C100.843 4.14998 100.965 4.4564 101.075 4.82511C101.206 5.26756 101.272 5.72795 101.272 6.20628C101.272 7.13901 101.075 7.80269 100.68 8.19731C100.285 8.59193 99.7533 8.78924 99.0836 8.78924H91.55V12.843H99.4065L99.4997 12.9816C99.6508 13.224 99.7812 13.5247 99.8908 13.8834C100.022 14.3139 100.088 14.7683 100.088 15.2466C100.088 16.1555 99.8908 16.8072 99.4962 17.2018C99.1016 17.5964 98.5694 17.7937 97.8998 17.7937H91.6217V25.3632L91.4998 25.394C91.2377 25.4555 90.8658 25.517 90.3841 25.5785C89.822 25.6502 89.266 25.6861 88.7159 25.6861C88.1658 25.6861 87.6815 25.6442 87.263 25.5605C86.8445 25.4768 86.4917 25.3274 86.2047 25.1121C85.9177 24.8969 85.7025 24.5979 85.559 24.2152C85.4155 23.8326 85.3437 23.3303 85.3437 22.7085V7.10314L85.3499 6.85052C85.3956 5.94071 85.6925 5.21176 86.2406 4.66368C86.8385 4.06577 87.6516 3.76682 88.68 3.76682H100.626ZM16.3082 2.53486V6.57678H4.7754V11.8672H14.8724V15.8623H4.7754V25.5067H0V2.53486H16.3082ZM22.8234 8.49631V25.5067H18.3133V8.49631H22.8234ZM47.4022 2.58167V14.9728L52.9423 8.57434H58.4512L52.5054 15.082L58.6853 25.5067H53.3169L49.2437 18.2344L47.4022 20.1539V25.5067H43.0326V2.58167H47.4022ZM64.4827 2.50364V25.5067H60.035V2.50364H64.4827ZM158.328 3.61928C159.074 3.39509 160.346 3.34522 161.836 4.00394C163.339 4.66892 164.277 5.80951 164.649 7.42572L172.721 8.11174C172.821 8.11754 172.92 8.13779 173.019 8.17249C173.167 8.22455 173.247 8.29778 173.314 8.35512C173.478 8.49569 173.531 8.60408 173.609 8.79817C173.748 9.14329 173.706 9.5495 173.525 9.82802C173.233 10.2771 172.777 10.5676 172.156 10.6996L165.639 12.0847L166.79 17.4963C166.922 18.1175 167.213 18.5176 167.663 18.6967C168.113 18.8757 168.696 18.889 169.413 18.7367C169.772 18.6605 170.135 18.5519 170.505 18.4109C170.875 18.2699 171.193 18.1212 171.459 17.9647C171.73 18.1818 171.977 18.4351 172.201 18.7246C172.425 19.0142 172.585 19.3859 172.682 19.8399C173.038 21.518 170.397 23.1034 168.666 23.4146C167.062 23.7027 164.602 23.9421 163.195 20.2574C161.789 16.5727 159.58 10.3962 157.894 5.249C157.748 4.80481 157.658 4.36854 157.814 4.00854C157.899 3.81395 157.96 3.72996 158.328 3.61928ZM130.138 12.3049C128.966 12.3049 128.087 12.6338 127.501 13.2915C126.915 13.9492 126.622 14.8879 126.622 16.1076C126.622 17.4948 126.915 18.4933 127.501 19.1031C128.087 19.713 128.834 20.0179 129.743 20.0179C130.724 20.0179 131.501 19.7907 132.075 19.3363V12.7354L131.965 12.678C131.806 12.6015 131.598 12.525 131.34 12.4484C131.017 12.3528 130.616 12.3049 130.138 12.3049ZM74.6185 11.7111C73.5885 11.7111 72.79 12.0336 72.2229 12.6787C71.6559 13.3237 71.2996 14.1977 71.1539 15.3005H78.0674C77.9945 14.1248 77.6382 13.2327 76.9984 12.6241C76.3585 12.0154 75.5652 11.7111 74.6185 11.7111ZM22.8234 2.36319V6.46754H18.3133V2.36319H22.8234ZM115.338 0C116.342 0 117.15 0.310912 117.76 0.932735C118.369 1.55456 118.674 2.31988 118.674 3.2287C118.674 4.13752 118.369 4.90284 117.76 5.52466C117.15 6.14649 116.342 6.4574 115.338 6.4574C114.334 6.4574 113.526 6.14649 112.916 5.52466C112.307 4.90284 112.002 4.13752 112.002 3.2287C112.002 2.31988 112.307 1.55456 112.916 0.932735C113.526 0.310912 114.334 0 115.338 0Z" fill="white"/>
</svg>
