<svg width="17" height="18" viewBox="0 0 17 18" fill="none" xmlns="http://www.w3.org/2000/svg">
<path d="M16.4507 6.18239L11.3544 5.38138L9.07622 0.386407C9.01399 0.249648 8.91163 0.138938 8.78517 0.0716438C8.46803 -0.0976771 8.08264 0.0434237 7.92407 0.386407L5.64588 5.38138L0.549546 6.18239C0.40904 6.2041 0.280578 6.27574 0.182224 6.38428C0.06332 6.51645 -0.00220174 6.69427 5.64951e-05 6.87865C0.00231473 7.06304 0.0721681 7.23892 0.194268 7.36764L3.88153 11.2555L3.0104 16.7454C2.98997 16.8731 3.00304 17.0045 3.04812 17.1246C3.0932 17.2446 3.16849 17.3487 3.26545 17.4248C3.36242 17.501 3.47717 17.5462 3.59671 17.5555C3.71624 17.5647 3.83577 17.5375 3.94175 17.477L8.50015 14.8851L13.0585 17.477C13.183 17.5486 13.3275 17.5725 13.466 17.5464C13.8153 17.4813 14.0501 17.1231 13.9899 16.7454L13.1188 11.2555L16.806 7.36764C16.9064 7.26127 16.9726 7.12234 16.9927 6.97039C17.0469 6.5905 16.802 6.23883 16.4507 6.18239Z" fill="#FDBF00"/>
</svg>
