<svg width="27" height="24" viewBox="0 0 27 24" fill="none" xmlns="http://www.w3.org/2000/svg">
<path d="M24.2262 0H2.6918C1.20727 0 0 1.19601 0 2.66669V21.3335C0 22.8042 1.20727 24.0002 2.6918 24.0002H24.2262C25.7107 24.0002 26.918 22.8042 26.918 21.3335V2.66669C26.918 1.19601 25.7107 0 24.2262 0ZM24.2276 8.00008C24.2262 8.00008 24.2262 8.00008 24.2276 8.00008H23.6017L20.0122 2.66669H24.2262L24.2276 8.00008ZM18.1697 16.0002L10.7672 20.0002V12.0001L18.1697 16.0002ZM16.8722 8.00008L13.2827 2.66669H16.7766L20.3662 8.00008H16.8722ZM13.6367 8.00008H10.1427L6.55319 2.66669H10.0471L13.6367 8.00008ZM2.6918 2.66669H3.31764L6.90716 8.00008H2.6918V2.66669Z" fill="white"/>
</svg>
