<svg width="20" height="18" viewBox="0 0 20 18" fill="none" xmlns="http://www.w3.org/2000/svg">
<path fill-rule="evenodd" clip-rule="evenodd" d="M5.29422 1.17646C5.13822 1.17646 4.9886 1.23844 4.87828 1.34875C4.76797 1.45907 4.70599 1.60868 4.70599 1.76469V4.11762C4.70599 4.27363 4.76797 4.42324 4.87828 4.53356C4.9886 4.64387 5.13822 4.70585 5.29422 4.70585C5.45023 4.70585 5.59985 4.64387 5.71017 4.53356C5.82048 4.42324 5.88245 4.27363 5.88245 4.11762V1.76469C5.88245 1.60868 5.82048 1.45907 5.71017 1.34875C5.59985 1.23844 5.45023 1.17646 5.29422 1.17646ZM5.29422 0C5.76225 0 6.21111 0.185923 6.54205 0.516867C6.87299 0.847811 7.05892 1.29667 7.05892 1.76469V4.11762C7.05892 4.58564 6.87299 5.0345 6.54205 5.36544C6.21111 5.69639 5.76225 5.88231 5.29422 5.88231C4.8262 5.88231 4.37734 5.69639 4.0464 5.36544C3.71545 5.0345 3.52953 4.58564 3.52953 4.11762V1.76469C3.52953 1.29667 3.71545 0.847811 4.0464 0.516867C4.37734 0.185923 4.8262 0 5.29422 0Z" fill="#303030"/>
<path fill-rule="evenodd" clip-rule="evenodd" d="M5.88238 2.94115C5.88238 2.61628 6.14574 2.35292 6.47061 2.35292H19.4117C19.7366 2.35292 19.9999 2.61628 19.9999 2.94115C19.9999 3.26602 19.7366 3.52938 19.4117 3.52938H6.47061C6.14574 3.52938 5.88238 3.26602 5.88238 2.94115Z" fill="#303030"/>
<path fill-rule="evenodd" clip-rule="evenodd" d="M0 2.94115C0 2.61628 0.26336 2.35292 0.588231 2.35292H4.11762C4.44249 2.35292 4.70585 2.61628 4.70585 2.94115C4.70585 3.26602 4.44249 3.52938 4.11762 3.52938H0.588231C0.26336 3.52938 0 3.26602 0 2.94115Z" fill="#303030"/>
<path fill-rule="evenodd" clip-rule="evenodd" d="M5.29422 12.9411C5.13822 12.9411 4.9886 13.0031 4.87828 13.1134C4.76797 13.2237 4.70599 13.3733 4.70599 13.5293V15.8823C4.70599 16.0383 4.76797 16.1879 4.87828 16.2982C4.9886 16.4085 5.13821 16.4705 5.29422 16.4705C5.45023 16.4705 5.59985 16.4085 5.71017 16.2982C5.82048 16.1879 5.88245 16.0383 5.88245 15.8823V13.5293C5.88245 13.3733 5.82048 13.2237 5.71017 13.1134C5.59985 13.0031 5.45023 12.9411 5.29422 12.9411ZM4.0464 12.2815C4.37734 11.9506 4.8262 11.7646 5.29422 11.7646C5.76225 11.7646 6.21111 11.9506 6.54205 12.2815C6.87299 12.6125 7.05892 13.0613 7.05892 13.5293V15.8823C7.05892 16.3503 6.87299 16.7991 6.54205 17.1301C6.2111 17.461 5.76225 17.647 5.29422 17.647C4.8262 17.647 4.37734 17.461 4.0464 17.1301C3.71545 16.7991 3.52953 16.3503 3.52953 15.8823V13.5293C3.52953 13.0613 3.71545 12.6125 4.0464 12.2815Z" fill="#303030"/>
<path fill-rule="evenodd" clip-rule="evenodd" d="M5.88238 14.7058C5.88238 14.3809 6.14574 14.1176 6.47061 14.1176H19.4117C19.7366 14.1176 19.9999 14.3809 19.9999 14.7058C19.9999 15.0307 19.7366 15.294 19.4117 15.294H6.47061C6.14574 15.294 5.88238 15.0307 5.88238 14.7058Z" fill="#303030"/>
<path fill-rule="evenodd" clip-rule="evenodd" d="M0 14.7058C0 14.3809 0.26336 14.1176 0.588231 14.1176H4.11762C4.44249 14.1176 4.70585 14.3809 4.70585 14.7058C4.70585 15.0307 4.44249 15.294 4.11762 15.294H0.588231C0.26336 15.294 0 15.0307 0 14.7058Z" fill="#303030"/>
<path fill-rule="evenodd" clip-rule="evenodd" d="M14.7056 7.05878C14.5496 7.05878 14.4 7.12076 14.2897 7.23107C14.1794 7.34139 14.1174 7.49101 14.1174 7.64701V9.99994C14.1174 10.1559 14.1794 10.3056 14.2897 10.4159C14.4 10.5262 14.5496 10.5882 14.7056 10.5882C14.8616 10.5882 15.0113 10.5262 15.1216 10.4159C15.2319 10.3056 15.2939 10.1559 15.2939 9.99994V7.64701C15.2939 7.49101 15.2319 7.34139 15.1216 7.23107C15.0113 7.12076 14.8616 7.05878 14.7056 7.05878ZM14.7056 5.88232C15.1737 5.88232 15.6225 6.06824 15.9535 6.39919C16.2844 6.73013 16.4703 7.17899 16.4703 7.64701V9.99994C16.4703 10.468 16.2844 10.9168 15.9535 11.2478C15.6225 11.5787 15.1737 11.7646 14.7056 11.7646C14.2376 11.7646 13.7888 11.5787 13.4578 11.2478C13.1269 10.9168 12.9409 10.468 12.9409 9.99994V7.64701C12.9409 7.17899 13.1269 6.73013 13.4578 6.39919C13.7888 6.06824 14.2376 5.88232 14.7056 5.88232Z" fill="#303030"/>
<path fill-rule="evenodd" clip-rule="evenodd" d="M0 8.82346C0 8.49859 0.26336 8.23523 0.588231 8.23523H13.5293C13.8542 8.23523 14.1175 8.49859 14.1175 8.82346C14.1175 9.14834 13.8542 9.41169 13.5293 9.41169H0.588231C0.26336 9.41169 0 9.14834 0 8.82346Z" fill="#303030"/>
<path fill-rule="evenodd" clip-rule="evenodd" d="M15.2938 8.82346C15.2938 8.49859 15.5572 8.23523 15.882 8.23523H19.4114C19.7363 8.23523 19.9996 8.49859 19.9996 8.82346C19.9996 9.14834 19.7363 9.41169 19.4114 9.41169H15.882C15.5572 9.41169 15.2938 9.14834 15.2938 8.82346Z" fill="#303030"/>
</svg>
