<svg width="23" height="32" viewBox="0 0 23 32" fill="none" xmlns="http://www.w3.org/2000/svg">
<path d="M22.9707 28.9555C22.9145 27.7544 22.8401 26.5596 22.7805 25.3675C22.5879 21.6382 22.6037 17.8543 22.4022 14.1066C22.2007 10.387 22.3202 6.66491 22.2139 2.94544C22.1924 2.1724 22.227 0.645743 21.4271 0.205051C19.7064 -0.741628 18.6849 1.84057 18.2472 2.89183C17.458 4.8 17.0021 6.80694 16.4385 8.78382C15.9581 10.476 15.411 12.1626 15.2256 13.9146C15.0883 15.2292 15.1009 16.701 15.7876 17.8855C16.1325 18.4808 16.7288 18.886 17.4078 19.0572C18.1125 19.2375 18.9182 19.0015 19.5869 19.3197C19.7593 19.403 19.9111 19.5761 19.9803 19.7508C20.197 20.3141 19.992 21.1686 19.9242 21.7497C19.7096 23.6216 19.4826 25.5122 19.381 27.393C19.3209 28.5305 19.2545 29.9873 19.9426 30.9784C20.3644 31.5802 21.2192 32.1422 21.9904 31.8431C23.1432 31.4018 23.0186 29.9113 22.9707 28.9555Z" fill="white"/>
<path d="M8.3057 1.03539C7.97441 1.1682 8.10003 2.35261 8.08527 2.71652C8.06349 3.37032 8.10814 4.23543 8.02941 5.08275C8.02894 5.09032 8.02782 5.09558 8.02671 5.10083C8.01989 5.15972 8.01437 5.22323 8.00468 5.2903C7.99434 5.35506 7.98337 5.4175 7.97544 5.48163C7.90482 5.89475 7.77038 6.38396 7.51628 6.6185C7.22778 6.88678 6.58131 6.83035 6.3568 6.51338C5.98946 5.9974 6.01703 4.84542 5.99472 4.81145C5.97979 4.26647 5.90037 2.61814 5.78127 1.53138C5.7714 1.4495 5.75557 0.956906 5.30583 0.90427C5.0961 0.881489 4.87541 1.06021 4.80388 1.38664C4.59266 2.35017 4.39485 4.18687 4.38239 4.47568C4.37986 4.50365 4.37862 4.53626 4.3785 4.56361C4.3785 4.56361 4.37738 4.56886 4.37803 4.57118C4.37666 4.63114 4.30523 6.07011 3.94108 6.56654C3.75077 6.82682 3.25665 7.03151 2.76562 6.7561C2.57004 6.64523 2.43601 6.43153 2.34153 6.20264C1.82804 4.60441 2.28898 2.84374 2.35458 2.00477C2.374 1.7688 2.58768 0.98096 2.11097 1.00732C1.39317 1.04631 0.466213 4.10456 0.300477 4.80551C-0.105863 6.54958 -0.16747 8.41317 0.539329 10.0955C0.932009 11.0272 1.69998 11.7898 2.65234 12.1595C3.07322 12.3214 3.54098 12.4389 4.03624 12.5071C3.85805 16.472 3.65573 20.6095 3.47148 22.9121C3.32977 24.6449 3.16245 26.3967 3.18496 28.1367C3.19826 29.1763 3.18731 30.4159 3.86971 31.2876C4.58356 32.1982 6.08922 31.7793 6.49575 30.7032C6.95177 29.4902 6.81913 28.0766 6.66386 25.8494C6.50795 23.6198 6.33244 20.5783 6.23573 18.9419C6.09417 16.5323 6.04478 14.4267 6.03118 12.5056C7.29908 12.3244 8.48163 11.7804 9.14345 10.7799C9.43382 10.3422 9.62498 9.85327 9.75555 9.35016C9.95582 8.58814 10.0535 7.75331 10.0102 6.96731C9.9662 6.24359 9.37144 0.60846 8.3057 1.03539Z" fill="white"/>
</svg>
