<svg width="27" height="32" viewBox="0 0 27 32" fill="none" xmlns="http://www.w3.org/2000/svg">
<path d="M0 23.4044C0 24.8756 0.658122 26.1962 1.68749 27.1157V29.2555C1.68749 30.6431 2.81811 31.7632 4.21873 31.7632C5.61935 31.7632 6.74997 30.6431 6.74997 29.2555V28.4197H20.2499V29.2555C20.2499 30.6264 21.3805 31.7632 22.7811 31.7632C24.1649 31.7632 25.3124 30.6431 25.3124 29.2555V27.1157C26.3418 26.1962 26.9999 24.8756 26.9999 23.4044V6.68698C26.9999 0.835873 20.9587 0 13.4999 0C6.04122 0 0 0.835873 0 6.68698V23.4044ZM5.90622 25.0762C4.5056 25.0762 3.37498 23.9561 3.37498 22.5686C3.37498 21.181 4.5056 20.0609 5.90622 20.0609C7.30684 20.0609 8.43746 21.181 8.43746 22.5686C8.43746 23.9561 7.30684 25.0762 5.90622 25.0762ZM21.0937 25.0762C19.693 25.0762 18.5624 23.9561 18.5624 22.5686C18.5624 21.181 19.693 20.0609 21.0937 20.0609C22.4943 20.0609 23.6249 21.181 23.6249 22.5686C23.6249 23.9561 22.4943 25.0762 21.0937 25.0762ZM23.6249 15.0457H3.37498V6.68698H23.6249V15.0457Z" fill="white"/>
</svg>
