<svg width="32" height="32" viewBox="0 0 32 32" fill="none" xmlns="http://www.w3.org/2000/svg">
<path d="M21.6709 1.03051C21.0044 0.370662 20.1008 0 19.1585 0C18.2163 0 17.3126 0.370662 16.6461 1.03051L1.041 16.4915C0.710966 16.8185 0.449164 17.2066 0.270548 17.6338C0.0919325 18.061 0 18.5189 0 18.9813C0 19.4436 0.0919325 19.9015 0.270548 20.3287C0.449164 20.7559 0.710966 21.144 1.041 21.471L2.89233 23.3035C3.69794 24.1031 4.83053 23.9607 5.51451 23.557C5.8918 23.335 6.33298 23.2439 6.76836 23.298C7.20375 23.3521 7.60854 23.5484 7.91882 23.8557C8.22909 24.1631 8.42718 24.5641 8.48179 24.9955C8.5364 25.4268 8.44443 25.8638 8.2204 26.2376C7.81444 26.9152 7.66911 28.0372 8.4763 28.8353L10.3292 30.6694C10.6592 30.9963 11.051 31.2557 11.4823 31.4326C11.9135 31.6096 12.3756 31.7006 12.8424 31.7006C13.3091 31.7006 13.7713 31.6096 14.2025 31.4326C14.6337 31.2557 15.0255 30.9963 15.3556 30.6694L30.9591 15.2115C31.2892 14.8845 31.551 14.4964 31.7296 14.0692C31.9082 13.642 32.0001 13.1841 32.0001 12.7217C32.0001 12.2594 31.9082 11.8015 31.7296 11.3743C31.551 10.9471 31.2892 10.559 30.9591 10.232L29.1094 8.39797C28.3038 7.59988 27.1696 7.74072 26.4856 8.14446C26.1083 8.3664 25.6671 8.45751 25.2318 8.4034C24.7964 8.3493 24.3916 8.15307 24.0813 7.84569C23.771 7.5383 23.5729 7.13729 23.5183 6.70597C23.4637 6.27465 23.5557 5.83759 23.7797 5.46381C24.1873 4.78622 24.331 3.6642 23.5238 2.86611L21.6725 1.03051H21.6709Z" fill="white"/>
</svg>
