<svg width="429" height="519" viewBox="0 0 429 519" fill="none" xmlns="http://www.w3.org/2000/svg">
<g filter="url(#filter0_d_1323_3020)">
<ellipse cx="168.084" cy="17.2274" rx="9.01252" ry="9.21628" fill="#4AACFF"/>
<path d="M168.084 27.4451C173.635 27.4451 178.098 22.8492 178.098 17.2274C178.098 11.6056 173.636 7.00973 168.084 7.00973C162.532 7.00973 158.07 11.6056 158.07 17.2274C158.07 22.8492 162.532 27.4451 168.084 27.4451Z" stroke="white" stroke-width="2"/>
</g>
<g filter="url(#filter1_d_1323_3020)">
<ellipse cx="189.68" cy="19.953" rx="9.01252" ry="9.21628" fill="#4AACFF"/>
<path d="M189.68 30.1707C195.232 30.1707 199.694 25.5748 199.694 19.953C199.694 14.3312 195.232 9.73532 189.68 9.73532C184.129 9.73532 179.666 14.3312 179.666 19.953C179.666 25.5748 184.129 30.1707 189.68 30.1707Z" stroke="white" stroke-width="2"/>
</g>
<g filter="url(#filter2_d_1323_3020)">
<ellipse cx="52.1452" cy="95.1531" rx="9.01252" ry="9.21628" fill="#4AACFF"/>
<path d="M52.1452 105.371C57.6967 105.371 62.1591 100.775 62.1591 95.1531C62.1591 89.5313 57.6967 84.9354 52.1452 84.9354C46.5936 84.9354 42.1313 89.5313 42.1313 95.1531C42.1313 100.775 46.5936 105.371 52.1452 105.371Z" stroke="white" stroke-width="2"/>
</g>
<g filter="url(#filter3_d_1323_3020)">
<ellipse cx="239.793" cy="88.4742" rx="9.01252" ry="9.21628" fill="#4AACFF"/>
<path d="M239.793 98.6918C245.345 98.6918 249.807 94.096 249.807 88.4742C249.807 82.8523 245.345 78.2565 239.793 78.2565C234.242 78.2565 229.78 82.8523 229.78 88.4742C229.78 94.096 234.242 98.6918 239.793 98.6918Z" stroke="white" stroke-width="2"/>
</g>
<g filter="url(#filter4_d_1323_3020)">
<ellipse cx="257.309" cy="98.4923" rx="9.01252" ry="9.21628" fill="#4AACFF"/>
<path d="M257.309 108.71C262.861 108.71 267.323 104.114 267.323 98.4923C267.323 92.8705 262.861 88.2747 257.309 88.2747C251.758 88.2747 247.296 92.8705 247.296 98.4923C247.296 104.114 251.758 108.71 257.309 108.71Z" stroke="white" stroke-width="2"/>
</g>
<g filter="url(#filter5_d_1323_3020)">
<ellipse cx="244.172" cy="98.4923" rx="9.01252" ry="9.21628" fill="#4AACFF"/>
<path d="M244.172 108.71C249.723 108.71 254.185 104.114 254.185 98.4923C254.185 92.8705 249.723 88.2747 244.172 88.2747C238.62 88.2747 234.158 92.8705 234.158 98.4923C234.158 104.114 238.62 108.71 244.172 108.71Z" stroke="white" stroke-width="2"/>
</g>
<g filter="url(#filter6_d_1323_3020)">
<ellipse cx="259.981" cy="69.3832" rx="9.01252" ry="9.21628" fill="#4AACFF"/>
<path d="M259.981 79.6009C265.532 79.6009 269.995 75.005 269.995 69.3832C269.995 63.7614 265.532 59.1655 259.981 59.1655C254.429 59.1655 249.967 63.7614 249.967 69.3832C249.967 75.005 254.429 79.6009 259.981 79.6009Z" stroke="white" stroke-width="2"/>
</g>
<g filter="url(#filter7_d_1323_3020)">
<ellipse cx="411.976" cy="181.483" rx="9.01252" ry="9.21628" fill="#4AACFF"/>
<path d="M411.976 191.701C417.528 191.701 421.99 187.105 421.99 181.483C421.99 175.862 417.528 171.266 411.976 171.266C406.425 171.266 401.962 175.862 401.962 181.483C401.962 187.105 406.425 191.701 411.976 191.701Z" stroke="white" stroke-width="2"/>
</g>
<g filter="url(#filter8_d_1323_3020)">
<ellipse cx="259.981" cy="306.265" rx="9.01252" ry="9.21628" fill="#4AACFF"/>
<path d="M259.981 316.483C265.532 316.483 269.995 311.887 269.995 306.265C269.995 300.643 265.532 296.047 259.981 296.047C254.429 296.047 249.967 300.643 249.967 306.265C249.967 311.887 254.429 316.483 259.981 316.483Z" stroke="white" stroke-width="2"/>
</g>
<g filter="url(#filter9_d_1323_3020)">
<ellipse cx="198.028" cy="501.73" rx="9.01252" ry="9.21628" fill="#4AACFF"/>
<path d="M198.028 511.947C203.579 511.947 208.042 507.352 208.042 501.73C208.042 496.108 203.579 491.512 198.028 491.512C192.476 491.512 188.014 496.108 188.014 501.73C188.014 507.352 192.476 511.947 198.028 511.947Z" stroke="white" stroke-width="2"/>
</g>
<g filter="url(#filter10_d_1323_3020)">
<ellipse cx="213.136" cy="489.31" rx="9.01252" ry="9.21628" fill="#4AACFF"/>
<path d="M213.136 499.528C218.688 499.528 223.15 494.932 223.15 489.31C223.15 483.688 218.688 479.092 213.136 479.092C207.585 479.092 203.122 483.688 203.122 489.31C203.122 494.932 207.585 499.528 213.136 499.528Z" stroke="white" stroke-width="2"/>
</g>
<g filter="url(#filter11_d_1323_3020)">
<ellipse cx="17.0236" cy="254.95" rx="9.01252" ry="9.21628" fill="#4AACFF"/>
<path d="M17.0236 265.168C22.5752 265.168 27.0375 260.572 27.0375 254.95C27.0375 249.328 22.5752 244.733 17.0236 244.733C11.4721 244.733 7.00973 249.328 7.00973 254.95C7.00973 260.572 11.4721 265.168 17.0236 265.168Z" stroke="white" stroke-width="2"/>
</g>
<g filter="url(#filter12_d_1323_3020)">
<ellipse cx="198.173" cy="93.034" rx="12.0167" ry="12.2884" fill="#4AACFF"/>
<path d="M198.173 106.324C205.384 106.324 211.191 100.353 211.191 93.034C211.191 85.7155 205.384 79.7443 198.173 79.7443C190.962 79.7443 185.155 85.7155 185.155 93.034C185.155 100.353 190.962 106.324 198.173 106.324Z" stroke="white" stroke-width="2"/>
</g>
<defs>
<filter id="filter0_d_1323_3020" x="151.06" y="0" width="34.0473" height="34.4548" filterUnits="userSpaceOnUse" color-interpolation-filters="sRGB">
<feFlood flood-opacity="0" result="BackgroundImageFix"/>
<feColorMatrix in="SourceAlpha" type="matrix" values="0 0 0 0 0 0 0 0 0 0 0 0 0 0 0 0 0 0 127 0" result="hardAlpha"/>
<feOffset/>
<feGaussianBlur stdDeviation="3"/>
<feComposite in2="hardAlpha" operator="out"/>
<feColorMatrix type="matrix" values="0 0 0 0 0.1875 0 0 0 0 0.1875 0 0 0 0 0.1875 0 0 0 0.27 0"/>
<feBlend mode="normal" in2="BackgroundImageFix" result="effect1_dropShadow_1323_3020"/>
<feBlend mode="normal" in="SourceGraphic" in2="effect1_dropShadow_1323_3020" result="shape"/>
</filter>
<filter id="filter1_d_1323_3020" x="172.657" y="2.72559" width="34.0473" height="34.4548" filterUnits="userSpaceOnUse" color-interpolation-filters="sRGB">
<feFlood flood-opacity="0" result="BackgroundImageFix"/>
<feColorMatrix in="SourceAlpha" type="matrix" values="0 0 0 0 0 0 0 0 0 0 0 0 0 0 0 0 0 0 127 0" result="hardAlpha"/>
<feOffset/>
<feGaussianBlur stdDeviation="3"/>
<feComposite in2="hardAlpha" operator="out"/>
<feColorMatrix type="matrix" values="0 0 0 0 0.1875 0 0 0 0 0.1875 0 0 0 0 0.1875 0 0 0 0.27 0"/>
<feBlend mode="normal" in2="BackgroundImageFix" result="effect1_dropShadow_1323_3020"/>
<feBlend mode="normal" in="SourceGraphic" in2="effect1_dropShadow_1323_3020" result="shape"/>
</filter>
<filter id="filter2_d_1323_3020" x="35.1215" y="77.9257" width="34.0473" height="34.4548" filterUnits="userSpaceOnUse" color-interpolation-filters="sRGB">
<feFlood flood-opacity="0" result="BackgroundImageFix"/>
<feColorMatrix in="SourceAlpha" type="matrix" values="0 0 0 0 0 0 0 0 0 0 0 0 0 0 0 0 0 0 127 0" result="hardAlpha"/>
<feOffset/>
<feGaussianBlur stdDeviation="3"/>
<feComposite in2="hardAlpha" operator="out"/>
<feColorMatrix type="matrix" values="0 0 0 0 0.1875 0 0 0 0 0.1875 0 0 0 0 0.1875 0 0 0 0.27 0"/>
<feBlend mode="normal" in2="BackgroundImageFix" result="effect1_dropShadow_1323_3020"/>
<feBlend mode="normal" in="SourceGraphic" in2="effect1_dropShadow_1323_3020" result="shape"/>
</filter>
<filter id="filter3_d_1323_3020" x="222.77" y="71.2468" width="34.0473" height="34.4548" filterUnits="userSpaceOnUse" color-interpolation-filters="sRGB">
<feFlood flood-opacity="0" result="BackgroundImageFix"/>
<feColorMatrix in="SourceAlpha" type="matrix" values="0 0 0 0 0 0 0 0 0 0 0 0 0 0 0 0 0 0 127 0" result="hardAlpha"/>
<feOffset/>
<feGaussianBlur stdDeviation="3"/>
<feComposite in2="hardAlpha" operator="out"/>
<feColorMatrix type="matrix" values="0 0 0 0 0.1875 0 0 0 0 0.1875 0 0 0 0 0.1875 0 0 0 0.27 0"/>
<feBlend mode="normal" in2="BackgroundImageFix" result="effect1_dropShadow_1323_3020"/>
<feBlend mode="normal" in="SourceGraphic" in2="effect1_dropShadow_1323_3020" result="shape"/>
</filter>
<filter id="filter4_d_1323_3020" x="240.286" y="81.2649" width="34.0473" height="34.4548" filterUnits="userSpaceOnUse" color-interpolation-filters="sRGB">
<feFlood flood-opacity="0" result="BackgroundImageFix"/>
<feColorMatrix in="SourceAlpha" type="matrix" values="0 0 0 0 0 0 0 0 0 0 0 0 0 0 0 0 0 0 127 0" result="hardAlpha"/>
<feOffset/>
<feGaussianBlur stdDeviation="3"/>
<feComposite in2="hardAlpha" operator="out"/>
<feColorMatrix type="matrix" values="0 0 0 0 0.1875 0 0 0 0 0.1875 0 0 0 0 0.1875 0 0 0 0.27 0"/>
<feBlend mode="normal" in2="BackgroundImageFix" result="effect1_dropShadow_1323_3020"/>
<feBlend mode="normal" in="SourceGraphic" in2="effect1_dropShadow_1323_3020" result="shape"/>
</filter>
<filter id="filter5_d_1323_3020" x="227.148" y="81.2649" width="34.0473" height="34.4548" filterUnits="userSpaceOnUse" color-interpolation-filters="sRGB">
<feFlood flood-opacity="0" result="BackgroundImageFix"/>
<feColorMatrix in="SourceAlpha" type="matrix" values="0 0 0 0 0 0 0 0 0 0 0 0 0 0 0 0 0 0 127 0" result="hardAlpha"/>
<feOffset/>
<feGaussianBlur stdDeviation="3"/>
<feComposite in2="hardAlpha" operator="out"/>
<feColorMatrix type="matrix" values="0 0 0 0 0.1875 0 0 0 0 0.1875 0 0 0 0 0.1875 0 0 0 0.27 0"/>
<feBlend mode="normal" in2="BackgroundImageFix" result="effect1_dropShadow_1323_3020"/>
<feBlend mode="normal" in="SourceGraphic" in2="effect1_dropShadow_1323_3020" result="shape"/>
</filter>
<filter id="filter6_d_1323_3020" x="242.957" y="52.1558" width="34.0473" height="34.4548" filterUnits="userSpaceOnUse" color-interpolation-filters="sRGB">
<feFlood flood-opacity="0" result="BackgroundImageFix"/>
<feColorMatrix in="SourceAlpha" type="matrix" values="0 0 0 0 0 0 0 0 0 0 0 0 0 0 0 0 0 0 127 0" result="hardAlpha"/>
<feOffset/>
<feGaussianBlur stdDeviation="3"/>
<feComposite in2="hardAlpha" operator="out"/>
<feColorMatrix type="matrix" values="0 0 0 0 0.1875 0 0 0 0 0.1875 0 0 0 0 0.1875 0 0 0 0.27 0"/>
<feBlend mode="normal" in2="BackgroundImageFix" result="effect1_dropShadow_1323_3020"/>
<feBlend mode="normal" in="SourceGraphic" in2="effect1_dropShadow_1323_3020" result="shape"/>
</filter>
<filter id="filter7_d_1323_3020" x="394.953" y="164.256" width="34.0473" height="34.4548" filterUnits="userSpaceOnUse" color-interpolation-filters="sRGB">
<feFlood flood-opacity="0" result="BackgroundImageFix"/>
<feColorMatrix in="SourceAlpha" type="matrix" values="0 0 0 0 0 0 0 0 0 0 0 0 0 0 0 0 0 0 127 0" result="hardAlpha"/>
<feOffset/>
<feGaussianBlur stdDeviation="3"/>
<feComposite in2="hardAlpha" operator="out"/>
<feColorMatrix type="matrix" values="0 0 0 0 0.1875 0 0 0 0 0.1875 0 0 0 0 0.1875 0 0 0 0.27 0"/>
<feBlend mode="normal" in2="BackgroundImageFix" result="effect1_dropShadow_1323_3020"/>
<feBlend mode="normal" in="SourceGraphic" in2="effect1_dropShadow_1323_3020" result="shape"/>
</filter>
<filter id="filter8_d_1323_3020" x="242.957" y="289.037" width="34.0473" height="34.4548" filterUnits="userSpaceOnUse" color-interpolation-filters="sRGB">
<feFlood flood-opacity="0" result="BackgroundImageFix"/>
<feColorMatrix in="SourceAlpha" type="matrix" values="0 0 0 0 0 0 0 0 0 0 0 0 0 0 0 0 0 0 127 0" result="hardAlpha"/>
<feOffset/>
<feGaussianBlur stdDeviation="3"/>
<feComposite in2="hardAlpha" operator="out"/>
<feColorMatrix type="matrix" values="0 0 0 0 0.1875 0 0 0 0 0.1875 0 0 0 0 0.1875 0 0 0 0.27 0"/>
<feBlend mode="normal" in2="BackgroundImageFix" result="effect1_dropShadow_1323_3020"/>
<feBlend mode="normal" in="SourceGraphic" in2="effect1_dropShadow_1323_3020" result="shape"/>
</filter>
<filter id="filter9_d_1323_3020" x="181.004" y="484.502" width="34.0473" height="34.4548" filterUnits="userSpaceOnUse" color-interpolation-filters="sRGB">
<feFlood flood-opacity="0" result="BackgroundImageFix"/>
<feColorMatrix in="SourceAlpha" type="matrix" values="0 0 0 0 0 0 0 0 0 0 0 0 0 0 0 0 0 0 127 0" result="hardAlpha"/>
<feOffset/>
<feGaussianBlur stdDeviation="3"/>
<feComposite in2="hardAlpha" operator="out"/>
<feColorMatrix type="matrix" values="0 0 0 0 0.1875 0 0 0 0 0.1875 0 0 0 0 0.1875 0 0 0 0.27 0"/>
<feBlend mode="normal" in2="BackgroundImageFix" result="effect1_dropShadow_1323_3020"/>
<feBlend mode="normal" in="SourceGraphic" in2="effect1_dropShadow_1323_3020" result="shape"/>
</filter>
<filter id="filter10_d_1323_3020" x="196.113" y="472.083" width="34.0473" height="34.4548" filterUnits="userSpaceOnUse" color-interpolation-filters="sRGB">
<feFlood flood-opacity="0" result="BackgroundImageFix"/>
<feColorMatrix in="SourceAlpha" type="matrix" values="0 0 0 0 0 0 0 0 0 0 0 0 0 0 0 0 0 0 127 0" result="hardAlpha"/>
<feOffset/>
<feGaussianBlur stdDeviation="3"/>
<feComposite in2="hardAlpha" operator="out"/>
<feColorMatrix type="matrix" values="0 0 0 0 0.1875 0 0 0 0 0.1875 0 0 0 0 0.1875 0 0 0 0.27 0"/>
<feBlend mode="normal" in2="BackgroundImageFix" result="effect1_dropShadow_1323_3020"/>
<feBlend mode="normal" in="SourceGraphic" in2="effect1_dropShadow_1323_3020" result="shape"/>
</filter>
<filter id="filter11_d_1323_3020" x="0" y="237.723" width="34.0473" height="34.4548" filterUnits="userSpaceOnUse" color-interpolation-filters="sRGB">
<feFlood flood-opacity="0" result="BackgroundImageFix"/>
<feColorMatrix in="SourceAlpha" type="matrix" values="0 0 0 0 0 0 0 0 0 0 0 0 0 0 0 0 0 0 127 0" result="hardAlpha"/>
<feOffset/>
<feGaussianBlur stdDeviation="3"/>
<feComposite in2="hardAlpha" operator="out"/>
<feColorMatrix type="matrix" values="0 0 0 0 0.1875 0 0 0 0 0.1875 0 0 0 0 0.1875 0 0 0 0.27 0"/>
<feBlend mode="normal" in2="BackgroundImageFix" result="effect1_dropShadow_1323_3020"/>
<feBlend mode="normal" in="SourceGraphic" in2="effect1_dropShadow_1323_3020" result="shape"/>
</filter>
<filter id="filter12_d_1323_3020" x="164.126" y="58.7151" width="68.0946" height="68.6379" filterUnits="userSpaceOnUse" color-interpolation-filters="sRGB">
<feFlood flood-opacity="0" result="BackgroundImageFix"/>
<feColorMatrix in="SourceAlpha" type="matrix" values="0 0 0 0 0 0 0 0 0 0 0 0 0 0 0 0 0 0 127 0" result="hardAlpha"/>
<feOffset/>
<feGaussianBlur stdDeviation="10"/>
<feComposite in2="hardAlpha" operator="out"/>
<feColorMatrix type="matrix" values="0 0 0 0 0.160784 0 0 0 0 0.607843 0 0 0 0 0.847059 0 0 0 1 0"/>
<feBlend mode="normal" in2="BackgroundImageFix" result="effect1_dropShadow_1323_3020"/>
<feBlend mode="normal" in="SourceGraphic" in2="effect1_dropShadow_1323_3020" result="shape"/>
</filter>
</defs>
</svg>
