<svg width="108" height="16" viewBox="0 0 108 16" fill="none" xmlns="http://www.w3.org/2000/svg">
<path d="M4.4402 7.59504L102.255 7.73411" stroke="#CACACA" stroke-width="0.836813" stroke-linecap="square" stroke-dasharray="1.67 4.18"/>
<path d="M50.6672 15.23H52.3337L56.5 8.81737L61.083 8.81737C61.7746 8.81737 62.3329 8.28033 62.3329 7.615C62.3329 6.94968 61.7746 6.41263 61.083 6.41263L56.5 6.41263L52.3337 0L50.6672 0L52.7503 6.41267L48.1674 6.41267L46.9175 4.80949H45.6676L46.5008 7.61504L45.6676 10.4206H46.9175L48.1674 8.81737H52.7504L50.6672 15.23Z" fill="#1262AE"/>
<circle cx="4.53742" cy="7.56236" r="3.70061" fill="white" stroke="#1262AE" stroke-width="1.67363"/>
<path d="M107.156 8.25211C107.156 10.0856 105.602 11.6272 103.615 11.6272C101.627 11.6272 100.073 10.0856 100.073 8.25211C100.073 6.41863 101.627 4.87703 103.615 4.87703C105.602 4.87703 107.156 6.41863 107.156 8.25211Z" fill="white" stroke="#1262AE" stroke-width="1.67363"/>
</svg>
